<mxfile host="app.diagrams.net" modified="2024-01-24T09:54:54.448Z" agent="Mozilla/5.0 (Windows NT 10.0; Win64; x64) AppleWebKit/537.36 (KHTML, like Gecko) Chrome/114.0.0.0 Safari/537.36" etag="zk8F5uVBJTMifNpuQHxf" version="22.1.21" type="github">
  <diagram name="第 1 页" id="VTekEHcH5lF8kZka2Lw2">
    <mxGraphModel dx="1434" dy="764" grid="1" gridSize="10" guides="1" tooltips="1" connect="1" arrows="1" fold="1" page="1" pageScale="1" pageWidth="827" pageHeight="1169" math="0" shadow="0">
      <root>
        <mxCell id="0" />
        <mxCell id="1" parent="0" />
        <mxCell id="IxUxPfUOMK_SD1_61bwH-5" value="" style="edgeStyle=orthogonalEdgeStyle;rounded=0;orthogonalLoop=1;jettySize=auto;html=1;" edge="1" parent="1" source="IxUxPfUOMK_SD1_61bwH-1" target="IxUxPfUOMK_SD1_61bwH-4">
          <mxGeometry relative="1" as="geometry" />
        </mxCell>
        <mxCell id="IxUxPfUOMK_SD1_61bwH-1" value="执行接口" style="rounded=1;whiteSpace=wrap;html=1;" vertex="1" parent="1">
          <mxGeometry x="90" y="220" width="120" height="60" as="geometry" />
        </mxCell>
        <mxCell id="IxUxPfUOMK_SD1_61bwH-3" value="" style="edgeStyle=orthogonalEdgeStyle;rounded=0;orthogonalLoop=1;jettySize=auto;html=1;" edge="1" parent="1" source="IxUxPfUOMK_SD1_61bwH-2" target="IxUxPfUOMK_SD1_61bwH-1">
          <mxGeometry relative="1" as="geometry" />
        </mxCell>
        <mxCell id="IxUxPfUOMK_SD1_61bwH-2" value="开始" style="ellipse;whiteSpace=wrap;html=1;" vertex="1" parent="1">
          <mxGeometry x="90" y="80" width="120" height="80" as="geometry" />
        </mxCell>
        <mxCell id="IxUxPfUOMK_SD1_61bwH-7" value="" style="edgeStyle=orthogonalEdgeStyle;rounded=0;orthogonalLoop=1;jettySize=auto;html=1;" edge="1" parent="1" source="IxUxPfUOMK_SD1_61bwH-4" target="IxUxPfUOMK_SD1_61bwH-6">
          <mxGeometry relative="1" as="geometry" />
        </mxCell>
        <mxCell id="IxUxPfUOMK_SD1_61bwH-4" value="结果断言" style="rhombus;whiteSpace=wrap;html=1;" vertex="1" parent="1">
          <mxGeometry x="110" y="340" width="80" height="80" as="geometry" />
        </mxCell>
        <mxCell id="IxUxPfUOMK_SD1_61bwH-6" value="未落地 断言失败" style="ellipse;whiteSpace=wrap;html=1;" vertex="1" parent="1">
          <mxGeometry x="90" y="470" width="120" height="80" as="geometry" />
        </mxCell>
        <mxCell id="IxUxPfUOMK_SD1_61bwH-16" style="edgeStyle=orthogonalEdgeStyle;rounded=0;orthogonalLoop=1;jettySize=auto;html=1;exitX=0.5;exitY=1;exitDx=0;exitDy=0;entryX=0.5;entryY=0;entryDx=0;entryDy=0;" edge="1" parent="1" source="IxUxPfUOMK_SD1_61bwH-9" target="IxUxPfUOMK_SD1_61bwH-15">
          <mxGeometry relative="1" as="geometry" />
        </mxCell>
        <mxCell id="IxUxPfUOMK_SD1_61bwH-9" value="执行接口" style="rounded=1;whiteSpace=wrap;html=1;" vertex="1" parent="1">
          <mxGeometry x="270" y="188" width="120" height="60" as="geometry" />
        </mxCell>
        <mxCell id="IxUxPfUOMK_SD1_61bwH-10" value="" style="edgeStyle=orthogonalEdgeStyle;rounded=0;orthogonalLoop=1;jettySize=auto;html=1;" edge="1" parent="1" source="IxUxPfUOMK_SD1_61bwH-11" target="IxUxPfUOMK_SD1_61bwH-9">
          <mxGeometry relative="1" as="geometry" />
        </mxCell>
        <mxCell id="IxUxPfUOMK_SD1_61bwH-11" value="开始" style="ellipse;whiteSpace=wrap;html=1;" vertex="1" parent="1">
          <mxGeometry x="270" y="80" width="120" height="80" as="geometry" />
        </mxCell>
        <mxCell id="IxUxPfUOMK_SD1_61bwH-12" value="" style="edgeStyle=orthogonalEdgeStyle;rounded=0;orthogonalLoop=1;jettySize=auto;html=1;" edge="1" parent="1" source="IxUxPfUOMK_SD1_61bwH-13" target="IxUxPfUOMK_SD1_61bwH-14">
          <mxGeometry relative="1" as="geometry" />
        </mxCell>
        <mxCell id="IxUxPfUOMK_SD1_61bwH-13" value="结果断言" style="rhombus;whiteSpace=wrap;html=1;" vertex="1" parent="1">
          <mxGeometry x="290" y="373" width="80" height="80" as="geometry" />
        </mxCell>
        <mxCell id="IxUxPfUOMK_SD1_61bwH-14" value="落地 断言成功" style="ellipse;whiteSpace=wrap;html=1;" vertex="1" parent="1">
          <mxGeometry x="270" y="470" width="120" height="80" as="geometry" />
        </mxCell>
        <mxCell id="IxUxPfUOMK_SD1_61bwH-17" style="edgeStyle=orthogonalEdgeStyle;rounded=0;orthogonalLoop=1;jettySize=auto;html=1;exitX=0.5;exitY=1;exitDx=0;exitDy=0;entryX=0.5;entryY=0;entryDx=0;entryDy=0;" edge="1" parent="1" source="IxUxPfUOMK_SD1_61bwH-15" target="IxUxPfUOMK_SD1_61bwH-13">
          <mxGeometry relative="1" as="geometry" />
        </mxCell>
        <mxCell id="IxUxPfUOMK_SD1_61bwH-15" value="等待30s" style="rounded=1;whiteSpace=wrap;html=1;" vertex="1" parent="1">
          <mxGeometry x="270" y="285" width="120" height="60" as="geometry" />
        </mxCell>
        <mxCell id="IxUxPfUOMK_SD1_61bwH-18" value="执行时间开销 &amp;lt; 3s" style="text;html=1;align=center;verticalAlign=middle;resizable=0;points=[];autosize=1;strokeColor=none;fillColor=none;" vertex="1" parent="1">
          <mxGeometry x="90" y="40" width="120" height="30" as="geometry" />
        </mxCell>
        <mxCell id="IxUxPfUOMK_SD1_61bwH-19" value="执行时间开销 &amp;gt; 30s" style="text;html=1;align=center;verticalAlign=middle;resizable=0;points=[];autosize=1;strokeColor=none;fillColor=none;" vertex="1" parent="1">
          <mxGeometry x="260" y="40" width="130" height="30" as="geometry" />
        </mxCell>
        <mxCell id="IxUxPfUOMK_SD1_61bwH-31" style="edgeStyle=orthogonalEdgeStyle;rounded=0;orthogonalLoop=1;jettySize=auto;html=1;exitX=0.5;exitY=1;exitDx=0;exitDy=0;entryX=0.5;entryY=0;entryDx=0;entryDy=0;" edge="1" parent="1" source="IxUxPfUOMK_SD1_61bwH-21" target="IxUxPfUOMK_SD1_61bwH-28">
          <mxGeometry relative="1" as="geometry" />
        </mxCell>
        <mxCell id="IxUxPfUOMK_SD1_61bwH-21" value="执行接口&lt;br&gt;提取断言变量" style="rounded=1;whiteSpace=wrap;html=1;" vertex="1" parent="1">
          <mxGeometry x="570" y="187.5" width="120" height="60" as="geometry" />
        </mxCell>
        <mxCell id="IxUxPfUOMK_SD1_61bwH-30" style="edgeStyle=orthogonalEdgeStyle;rounded=0;orthogonalLoop=1;jettySize=auto;html=1;exitX=0.5;exitY=1;exitDx=0;exitDy=0;entryX=0.5;entryY=0;entryDx=0;entryDy=0;" edge="1" parent="1" source="IxUxPfUOMK_SD1_61bwH-23" target="IxUxPfUOMK_SD1_61bwH-21">
          <mxGeometry relative="1" as="geometry" />
        </mxCell>
        <mxCell id="IxUxPfUOMK_SD1_61bwH-23" value="开始" style="ellipse;whiteSpace=wrap;html=1;" vertex="1" parent="1">
          <mxGeometry x="570" y="80" width="120" height="80" as="geometry" />
        </mxCell>
        <mxCell id="IxUxPfUOMK_SD1_61bwH-24" value="" style="edgeStyle=orthogonalEdgeStyle;rounded=0;orthogonalLoop=1;jettySize=auto;html=1;" edge="1" parent="1" source="IxUxPfUOMK_SD1_61bwH-25" target="IxUxPfUOMK_SD1_61bwH-26">
          <mxGeometry relative="1" as="geometry" />
        </mxCell>
        <mxCell id="IxUxPfUOMK_SD1_61bwH-25" value="结果断言" style="rhombus;whiteSpace=wrap;html=1;" vertex="1" parent="1">
          <mxGeometry x="590" y="453" width="80" height="80" as="geometry" />
        </mxCell>
        <mxCell id="IxUxPfUOMK_SD1_61bwH-26" value="落地 断言成功" style="ellipse;whiteSpace=wrap;html=1;" vertex="1" parent="1">
          <mxGeometry x="570" y="550" width="120" height="80" as="geometry" />
        </mxCell>
        <mxCell id="IxUxPfUOMK_SD1_61bwH-27" value="执行时间开销 &amp;lt; 3s" style="text;html=1;align=center;verticalAlign=middle;resizable=0;points=[];autosize=1;strokeColor=none;fillColor=none;" vertex="1" parent="1">
          <mxGeometry x="570" y="40" width="120" height="30" as="geometry" />
        </mxCell>
        <mxCell id="IxUxPfUOMK_SD1_61bwH-32" style="edgeStyle=orthogonalEdgeStyle;rounded=0;orthogonalLoop=1;jettySize=auto;html=1;exitX=0.5;exitY=1;exitDx=0;exitDy=0;entryX=0.5;entryY=0;entryDx=0;entryDy=0;" edge="1" parent="1" source="IxUxPfUOMK_SD1_61bwH-28" target="IxUxPfUOMK_SD1_61bwH-29">
          <mxGeometry relative="1" as="geometry" />
        </mxCell>
        <mxCell id="IxUxPfUOMK_SD1_61bwH-28" value="等待3s" style="rounded=1;whiteSpace=wrap;html=1;" vertex="1" parent="1">
          <mxGeometry x="570" y="260" width="120" height="60" as="geometry" />
        </mxCell>
        <mxCell id="IxUxPfUOMK_SD1_61bwH-33" value="" style="edgeStyle=orthogonalEdgeStyle;rounded=0;orthogonalLoop=1;jettySize=auto;html=1;" edge="1" parent="1" source="IxUxPfUOMK_SD1_61bwH-29" target="IxUxPfUOMK_SD1_61bwH-25">
          <mxGeometry relative="1" as="geometry" />
        </mxCell>
        <mxCell id="IxUxPfUOMK_SD1_61bwH-34" value="是" style="edgeLabel;html=1;align=center;verticalAlign=middle;resizable=0;points=[];" vertex="1" connectable="0" parent="IxUxPfUOMK_SD1_61bwH-33">
          <mxGeometry x="-0.1628" relative="1" as="geometry">
            <mxPoint as="offset" />
          </mxGeometry>
        </mxCell>
        <mxCell id="IxUxPfUOMK_SD1_61bwH-35" style="edgeStyle=orthogonalEdgeStyle;rounded=0;orthogonalLoop=1;jettySize=auto;html=1;exitX=1;exitY=0.5;exitDx=0;exitDy=0;entryX=0.5;entryY=0;entryDx=0;entryDy=0;" edge="1" parent="1" source="IxUxPfUOMK_SD1_61bwH-29" target="IxUxPfUOMK_SD1_61bwH-21">
          <mxGeometry relative="1" as="geometry" />
        </mxCell>
        <mxCell id="IxUxPfUOMK_SD1_61bwH-36" value="否" style="edgeLabel;html=1;align=center;verticalAlign=middle;resizable=0;points=[];" vertex="1" connectable="0" parent="IxUxPfUOMK_SD1_61bwH-35">
          <mxGeometry x="-0.4068" y="1" relative="1" as="geometry">
            <mxPoint as="offset" />
          </mxGeometry>
        </mxCell>
        <mxCell id="IxUxPfUOMK_SD1_61bwH-29" value="判断是否与预期相同且未超时" style="rhombus;whiteSpace=wrap;html=1;" vertex="1" parent="1">
          <mxGeometry x="525" y="330" width="210" height="80" as="geometry" />
        </mxCell>
      </root>
    </mxGraphModel>
  </diagram>
</mxfile>
